<?xml version="1.0" standalone="no"?>
<!DOCTYPE svg PUBLIC "-//W3C//DTD SVG 20010904//EN"
 "http://www.w3.org/TR/2001/REC-SVG-20010904/DTD/svg10.dtd">
<svg version="1.0" xmlns="http://www.w3.org/2000/svg"
 width="1280.000000pt" height="990.000000pt" viewBox="0 0 1280.000000 990.000000"
 preserveAspectRatio="xMidYMid meet">
<metadata>
Created by potrace 1.15, written by Peter Selinger 2001-2017
</metadata>
<g transform="translate(0.000000,990.000000) scale(0.100000,-0.100000)"
fill="#000000" stroke="none">
<path d="M9895 9890 c-397 -59 -736 -357 -847 -746 -19 -67 -22 -103 -22 -239
-1 -135 3 -172 21 -235 85 -290 264 -516 510 -643 162 -83 310 -119 487 -118
239 1 480 87 659 236 237 196 400 584 357 846 -42 258 -129 437 -294 604 -162
163 -358 260 -601 295 -79 11 -196 11 -270 0z"/>
<path d="M8153 8626 c-39 -8 -106 -31 -149 -51 -226 -109 -286 -308 -182 -605
42 -118 175 -377 267 -517 189 -287 513 -656 736 -836 330 -266 790 -484 1315
-621 52 -14 147 -38 211 -55 181 -48 381 -86 569 -110 47 -6 126 -16 175 -22
116 -14 909 -23 901 -10 -16 25 -201 72 -437 111 -315 53 -350 63 -639 199
-1090 512 -1626 987 -1936 1716 -84 198 -202 435 -259 520 -153 227 -348 322
-572 281z"/>
<path d="M4964 7422 c-221 -119 -326 -255 -386 -502 -9 -37 -13 -124 -13 -265
0 -255 8 -309 106 -730 42 -182 109 -495 139 -648 28 -142 165 -699 250 -1017
40 -149 81 -306 130 -490 15 -58 46 -177 69 -265 62 -234 144 -569 181 -735
29 -132 54 -223 140 -510 16 -52 61 -203 100 -335 39 -132 84 -283 100 -335
16 -52 47 -158 70 -235 84 -281 143 -452 193 -554 46 -94 52 -101 60 -80 14
32 12 556 -2 794 -6 105 -15 287 -21 405 -38 786 -75 1441 -120 2115 -25 369
-84 1112 -110 1375 -20 210 -30 318 -45 485 -50 571 -73 708 -156 959 -98 296
-244 474 -462 564 -116 49 -140 49 -223 4z"/>
<path d="M6123 7361 c-59 -7 -79 -23 -152 -116 -101 -128 -142 -235 -145 -373
-1 -81 1 -92 37 -167 85 -177 333 -360 727 -535 115 -51 306 -124 645 -247 99
-36 184 -68 188 -72 8 -8 -460 -975 -838 -1731 -131 -261 -245 -498 -255 -525
-21 -62 -45 -193 -37 -201 3 -4 37 11 74 31 52 29 109 79 243 214 180 181
1038 1071 1195 1241 188 202 310 375 400 562 96 203 129 333 130 518 0 106 -4
135 -24 195 -71 209 -217 393 -448 566 -149 111 -523 352 -642 413 -305 156
-625 237 -921 234 -69 0 -148 -4 -177 -7z"/>
<path d="M2690 5784 c-325 -38 -595 -121 -910 -280 -627 -316 -1115 -831
-1451 -1529 -163 -339 -246 -621 -305 -1030 -25 -168 -24 -590 0 -765 70 -507
250 -956 516 -1290 69 -88 239 -259 326 -331 237 -194 567 -357 835 -414 464
-99 953 -55 1402 124 213 85 522 270 735 440 347 277 687 709 911 1159 234
469 367 1132 331 1642 -23 331 -107 688 -223 950 -184 416 -486 779 -833 1003
-218 141 -520 254 -804 302 -91 16 -449 28 -530 19z m511 -627 c368 -80 639
-251 880 -557 152 -193 256 -413 328 -690 88 -344 100 -649 40 -1006 -42 -255
-142 -582 -231 -759 -90 -177 -244 -419 -368 -575 -109 -137 -310 -337 -430
-427 -130 -97 -383 -248 -505 -301 -455 -197 -994 -199 -1382 -3 -219 109
-463 326 -596 527 -417 629 -445 1556 -72 2341 67 140 222 400 312 520 354
475 878 824 1398 932 140 29 149 29 340 26 134 -3 194 -9 286 -28z"/>
<path d="M10380 5689 c-452 -45 -997 -283 -1420 -619 -131 -104 -352 -324
-452 -450 -263 -333 -492 -731 -598 -1046 -43 -125 -115 -399 -140 -529 -49
-260 -66 -632 -40 -879 93 -892 536 -1592 1230 -1945 217 -111 427 -175 670
-206 183 -24 499 -16 680 15 370 65 751 233 1120 493 342 241 675 616 914
1031 438 759 568 1668 351 2460 -142 519 -443 977 -838 1274 -400 302 -958
453 -1477 401z m401 -603 c354 -44 631 -178 874 -421 226 -226 387 -515 471
-845 52 -208 79 -469 70 -685 -28 -656 -288 -1284 -740 -1786 -318 -354 -777
-628 -1206 -720 -143 -31 -507 -34 -640 -6 -309 66 -558 204 -784 435 -111
113 -194 233 -279 402 -117 232 -190 485 -218 758 -17 167 -6 504 21 660 27
156 97 417 145 547 125 334 385 735 645 995 265 266 575 462 910 578 275 95
479 119 731 88z"/>
</g>
</svg>
